<svg xmlns="http://www.w3.org/2000/svg" version="1.1" xmlns:xlink="http://www.w3.org/1999/xlink" width="1000" height="1000"><metadata><rdf:RDF xmlns:rdf="http://www.w3.org/1999/02/22-rdf-syntax-ns#" xmlns:dc="http://purl.org/dc/elements/1.1/"><rdf:Description><dc:creator>RealFaviconGenerator</dc:creator><dc:source>https://realfavicongenerator.net</dc:source></rdf:Description></rdf:RDF></metadata><style>
    #light-icon {
      display: inline;
    }
    #dark-icon {
      display: none;
    }

    @media (prefers-color-scheme: dark) {
      #light-icon {
        display: none;
      }
      #dark-icon {
        display: inline;
      }
    }
  </style><g id="light-icon"><svg xmlns="http://www.w3.org/2000/svg" version="1.1" xmlns:xlink="http://www.w3.org/1999/xlink" width="1000" height="1000"><g><g transform="matrix(10,0,0,10,0,0)"><svg xmlns="http://www.w3.org/2000/svg" viewBox="0 0 100 100" width="100" height="100"><circle cx="50" cy="50" r="50" fill="#000"></circle><rect x="8" y="52" width="84" height="16" rx="3" fill="#fff"></rect><path d="M19 52 L28 32 L72 32 L81 52Z" fill="#fff"></path><circle cx="26" cy="68" r="10" fill="#000" stroke="#fff" stroke-width="3"></circle><circle cx="74" cy="68" r="10" fill="#000" stroke="#fff" stroke-width="3"></circle></svg></g></g></svg></g><g id="dark-icon"><svg xmlns="http://www.w3.org/2000/svg" version="1.1" xmlns:xlink="http://www.w3.org/1999/xlink" width="1000" height="1000"><g><g transform="matrix(10,0,0,10,0,0)"><svg xmlns="http://www.w3.org/2000/svg" viewBox="0 0 100 100" width="100" height="100"><circle cx="50" cy="50" r="50" fill="#fff"></circle><rect x="8" y="52" width="84" height="16" rx="3" fill="#000"></rect><path d="M19 52 L28 32 L72 32 L81 52Z" fill="#000"></path><circle cx="26" cy="68" r="10" fill="#fff" stroke="#000" stroke-width="3"></circle><circle cx="74" cy="68" r="10" fill="#fff" stroke="#000" stroke-width="3"></circle></svg></g></g></svg></g></svg>